<?xml version="1.0" encoding="UTF-8"?>
<svg version="1.1" xmlns="http://www.w3.org/2000/svg" width="1024" height="1024">
<path d="M0 0 C337.92 0 675.84 0 1024 0 C1024 337.92 1024 675.84 1024 1024 C686.08 1024 348.16 1024 0 1024 C0 686.08 0 348.16 0 0 Z " fill="#FDFEFE" transform="translate(0,0)"/>
<path d="M0 0 C0.85919037 -0.00014603 1.71838074 -0.00029205 2.60360718 -0.0004425 C5.42798434 0.0002511 8.25229459 0.00801759 11.07666016 0.01586914 C13.04106612 0.01773528 15.00547255 0.01915826 16.96987915 0.02015686 C22.12865494 0.0239666 27.28740237 0.03378368 32.44616699 0.04486084 C37.71492123 0.05510818 42.98368007 0.05966159 48.25244141 0.06469727 C58.58188092 0.07540736 68.91129942 0.09246521 79.24072266 0.11352539 C79.24072266 0.77352539 79.24072266 1.43352539 79.24072266 2.11352539 C78.45697266 2.60852539 77.67322266 3.10352539 76.86572266 3.61352539 C70.97227064 7.34088764 65.13279828 12.84623382 61.63916016 18.87915039 C60.24072266 21.11352539 60.24072266 21.11352539 57.05322266 21.92602539 C56.12509766 21.98790039 55.19697266 22.04977539 54.24072266 22.11352539 C54.24072266 22.77352539 54.24072266 23.43352539 54.24072266 24.11352539 C55.72572266 24.60852539 55.72572266 24.60852539 57.24072266 25.11352539 C57.04736328 25.74258789 56.85400391 26.37165039 56.65478516 27.01977539 C56.39439453 27.87571289 56.13400391 28.73165039 55.86572266 29.61352539 C55.48287109 30.86649414 55.48287109 30.86649414 55.09228516 32.14477539 C49.59261192 51.31794813 51.5052367 68.95711161 60.87353516 86.72290039 C61.92531004 88.56200391 63.06552615 90.35073064 64.24072266 92.11352539 C63.90587886 98.70238723 58.60243896 102.67528775 54.24072266 107.11352539 C53.60779297 107.77094727 52.97486328 108.42836914 52.32275391 109.10571289 C46.81467169 114.39065318 40.31673709 117.39558607 33.24072266 120.11352539 C32.22896973 120.52393066 32.22896973 120.52393066 31.19677734 120.94262695 C23.74297796 123.61438661 16.30387257 123.50408087 8.49707031 123.39477539 C6.2174465 123.36320302 3.93851375 123.35375234 1.65869141 123.34790039 C-9.43039297 123.27796758 -9.43039297 123.27796758 -11.75927734 122.11352539 C-10.44309837 116.71719162 -8.10973321 112.58143736 -3.75927734 109.11352539 C-0.67370804 108.23887299 2.24032541 108.32327159 5.42822266 108.42602539 C16.49720993 108.32109101 25.5443472 106.17788339 33.97900391 98.53930664 C42.05424438 90.29114882 45.25366549 78.88689923 45.55322266 67.55102539 C45.42559395 56.10698498 41.30729765 44.38513374 33.27587891 36.08227539 C23.09022039 27.38854877 11.1497129 25.98301657 -1.75634766 26.89916992 C-10.92198464 27.88008524 -17.92927316 33.20136324 -23.75927734 40.11352539 C-31.66890751 52.23062963 -33.38807347 65.07251447 -31.13427734 79.30102539 C-28.82270895 89.06098083 -23.65305267 96.14861919 -15.75927734 102.11352539 C-14.76927734 102.91790039 -13.77927734 103.72227539 -12.75927734 104.55102539 C-12.09927734 105.06665039 -11.43927734 105.58227539 -10.75927734 106.11352539 C-11.43023437 106.86182617 -11.43023437 106.86182617 -12.11474609 107.62524414 C-21.86629787 119.20651139 -24.05130993 131.05850831 -23.02929688 145.80053711 C-22.43504287 150.89091909 -20.70058974 155.41624271 -18.75927734 160.11352539 C-18.75927734 160.77352539 -18.75927734 161.43352539 -18.75927734 162.11352539 C-19.41154297 162.32106445 -20.06380859 162.52860352 -20.73583984 162.74243164 C-27.01725374 164.95667636 -31.22063296 167.36322826 -34.75927734 173.11352539 C-37.65982238 179.17556415 -38.06357533 186.07483618 -35.98974609 192.49633789 C-32.8528763 198.32670366 -27.83235512 200.90254551 -21.75927734 203.11352539 C-17.14294798 204.30476696 -12.60131118 204.30918043 -7.86474609 204.35180664 C-6.99972977 204.35987839 -6.13471344 204.36795013 -5.2434845 204.37626648 C-3.41030863 204.39007422 -1.57710741 204.40081112 0.25610352 204.40869141 C2.10123414 204.42012584 3.94633397 204.4404394 5.79125977 204.47021484 C19.72499538 204.69464917 34.62418003 204.92951102 46.24072266 196.11352539 C51.19059695 189.55828646 52.01710858 184.15868388 51.24072266 176.11352539 C50.21306077 172.53307285 48.56134444 170.00705247 45.40478516 167.87133789 C43.37386773 166.80530077 41.38821937 165.91979195 39.24072266 165.11352539 C37.97119751 164.5993103 37.97119751 164.5993103 36.67602539 164.07470703 C32.38048604 162.87283521 28.51473161 162.87147559 24.08056641 162.91040039 C22.29996009 162.89985808 20.51936062 162.88810278 18.73876953 162.87524414 C15.95156925 162.86491115 13.16533166 162.86361756 10.37817383 162.88354492 C7.67398225 162.89831021 4.97210857 162.87586961 2.26806641 162.84790039 C1.43774399 162.86326843 0.60742157 162.87863647 -0.24806213 162.89447021 C-5.88416387 162.79985634 -5.88416387 162.79985634 -8.3678894 160.85192871 C-15.76007887 152.2553853 -16.39420845 141.92212001 -15.75927734 131.11352539 C-14.75927734 127.36352539 -14.75927734 127.36352539 -13.75927734 125.11352539 C-11.75927734 128.11352539 -11.75927734 128.11352539 -11.44677734 130.17602539 C-10.91775215 132.37736682 -10.91775215 132.37736682 -8.38427734 133.30102539 C-7.51802734 133.56915039 -6.65177734 133.83727539 -5.75927734 134.11352539 C-4.76927734 134.44352539 -3.77927734 134.77352539 -2.75927734 135.11352539 C-1.40130501 135.21188254 -0.03920832 135.25892344 1.32226562 135.27124023 C2.14097137 135.28150238 2.95967712 135.29176453 3.80319214 135.30233765 C4.68749908 135.30963898 5.57180603 135.31694031 6.48291016 135.32446289 C8.37354329 135.35256692 10.26416815 135.38123155 12.15478516 135.41040039 C15.1209254 135.45136648 18.08691726 135.48826683 21.05322266 135.51489258 C39.55831933 135.69521778 58.05334293 136.71433342 72.24072266 150.11352539 C81.36646224 160.41485152 84.02508842 171.38243635 83.61572266 184.91040039 C82.81667737 197.24994262 77.09569342 208.62970937 68.30322266 217.23852539 C49.23534072 232.1207747 24.88555918 233.3432959 1.67822266 233.36352539 C0.97684174 233.36420013 0.27546082 233.36487488 -0.44717407 233.36557007 C-22.64571972 233.33178233 -42.41856497 230.85828255 -59.59912109 215.46508789 C-67.04738147 207.69463813 -69.20796781 198.37624786 -69.32177734 187.92602539 C-69.33644043 187.09498291 -69.35110352 186.26394043 -69.36621094 185.40771484 C-69.19403819 174.94770214 -63.86184422 165.28021788 -56.58349609 157.91040039 C-52.54432198 154.24459531 -48.4037815 150.9716818 -43.75927734 148.11352539 C-44.28328125 147.28208008 -44.28328125 147.28208008 -44.81787109 146.43383789 C-45.27291016 145.70938477 -45.72794922 144.98493164 -46.19677734 144.23852539 C-46.64923828 143.51922852 -47.10169922 142.79993164 -47.56787109 142.05883789 C-50.66875737 136.99575144 -50.51344462 131.93038967 -49.75927734 126.11352539 C-47.89360166 121.71501785 -45.49658312 117.80290549 -42.06005859 114.46118164 C-40.52778306 113.18585921 -40.52778306 113.18585921 -40.75927734 111.11352539 C-42.05482486 110.08488465 -43.39825562 109.11632587 -44.75927734 108.17602539 C-54.55066466 100.77466175 -61.5558264 89.56916135 -63.44677734 77.42993164 C-65.51191678 55.51363934 -62.08958872 37.24499031 -47.91943359 19.85571289 C-35.58372672 6.55505644 -17.84360584 -0.08006142 0 0 Z " fill="#233061" transform="translate(456.75927734375,338.886474609375)"/>
<path d="M0 0 C-1.74819139 6.11866987 -4.18027712 11.68941333 -7 17.375 C-7.34417969 18.07689453 -7.68835938 18.77878906 -8.04296875 19.50195312 C-9.71463329 22.81646041 -11.2869412 25.47620203 -14 28 C-14.90621094 27.52949219 -15.81242188 27.05898438 -16.74609375 26.57421875 C-28.40498887 20.58765187 -38.61144957 16.85357117 -51.875 16.6875 C-53.02162109 16.64399414 -53.02162109 16.64399414 -54.19140625 16.59960938 C-60.90116202 16.52556283 -66.03605013 18.33413237 -71.05859375 22.8515625 C-71.51363281 23.43679688 -71.96867188 24.02203125 -72.4375 24.625 C-72.91058594 25.21539062 -73.38367188 25.80578125 -73.87109375 26.4140625 C-77.48679161 31.493555 -76.54306554 38.04522325 -76 44 C-71.40096315 59.96768403 -53.16862655 67.18643258 -39.91503906 74.88500977 C-29.4532617 80.98123133 -19.14502036 86.99435922 -10 95 C-9.31679688 95.58523438 -8.63359375 96.17046875 -7.9296875 96.7734375 C1.02799273 105.03311667 8.41624043 117.82655863 9.12451172 130.16992188 C9.69391081 148.20678741 7.96513383 164.04712286 -4.25 178.3125 C-15.32943948 189.85435348 -29.76845579 196.82453123 -45.81640625 197.3359375 C-48.39830496 197.36516028 -50.98043718 197.37755365 -53.5625 197.375 C-54.22864319 197.3764502 -54.89478638 197.37790039 -55.58111572 197.37939453 C-65.62886267 197.37697156 -74.60764458 196.6910309 -84 193 C-83.37381132 189.6161727 -82.5226985 186.40786218 -81.5 183.125 C-79.54315671 176.14718321 -79.28223352 169.21155309 -79 162 C-77.20763933 162.47656412 -75.41613103 162.95633498 -73.625 163.4375 C-72.62726562 163.70433594 -71.62953125 163.97117187 -70.6015625 164.24609375 C-68 165 -68 165 -66 166 C-62.65224886 166.26811258 -59.2947786 166.23166674 -55.9375 166.25 C-55.02033203 166.270625 -54.10316406 166.29125 -53.15820312 166.3125 C-44.62114302 166.36090289 -36.89002626 164.87755967 -30.5078125 158.8515625 C-25.75384091 153.01378392 -24.30994798 146.13333707 -24.61328125 138.73828125 C-26.02632645 128.73277941 -31.1314838 122.12906856 -38.8125 116 C-45.79182383 110.8795343 -53.27952853 106.68452214 -60.77709961 102.3762207 C-82.65644658 89.75750565 -102.8405992 77.70875741 -110 52 C-112.8203922 35.8501109 -110.50990406 20.60526646 -101 7 C-75.62075795 -22.85558081 -30.64071692 -21.06549288 0 0 Z " fill="#29B290" transform="translate(627,353)"/>
<path d="M0 0 C3.96 0 7.92 0 12 0 C12 20.79 12 41.58 12 63 C8.04 63 4.08 63 0 63 C-0.495 61.02 -0.495 61.02 -1 59 C-1.42667969 59.3609375 -1.85335937 59.721875 -2.29296875 60.09375 C-7.67183453 64.08631017 -12.23611479 64.76099522 -18.875 64.484375 C-24.89210509 63.55172371 -28.78873232 60.54046188 -32.8125 56.125 C-37.43079307 49.52743847 -38.92113554 43.92923429 -38 36 C-36.3054828 29.06230277 -33.10185456 23.05706151 -27 19.125 C-21.46011218 16.2863798 -16.09349025 16.19159117 -10 17 C-5.93401236 18.52474537 -3.5138339 20.36462458 0 23 C0 15.41 0 7.82 0 0 Z " fill="#253060" transform="translate(682,634)"/>
<path d="M0 0 C2.23696743 1.54228419 4.04385387 3.09672268 6 5 C5.09515208 6.15518918 4.1755794 7.29885406 3.25 8.4375 C2.48429687 9.39462891 2.48429687 9.39462891 1.703125 10.37109375 C-0.22022003 12.21062329 -1.36895114 12.73207242 -4 13 C-5.9375 11.6875 -5.9375 11.6875 -8 10 C-13.10677158 7.22775257 -18.59781386 7.27574213 -24.18359375 8.46484375 C-30.11070212 10.35838121 -32.94039673 13.52851322 -36.10546875 18.86328125 C-38.12200214 23.68006624 -37.92380171 29.44772922 -36.16015625 34.3203125 C-33.31781001 39.3542321 -29.47445446 43.02105869 -24 45 C-18.12245874 45.7179951 -12.83122261 44.97187044 -7 44 C-7 38.06 -7 32.12 -7 26 C-3.04 26 0.92 26 5 26 C5 34.25 5 42.5 5 51 C-6.79155412 55.94484528 -18.21552603 59.68791329 -31 55.875 C-40.50421332 51.96469509 -46.41583108 45.10803562 -50.375 35.75 C-52.2071614 24.7570316 -51.43089254 16.35153244 -45 7 C-42.58184274 4.19149031 -40.07848681 2.0542319 -37 0 C-36.36835938 -0.43183594 -35.73671875 -0.86367188 -35.0859375 -1.30859375 C-24.99958936 -6.93591926 -9.86623691 -5.36134054 0 0 Z " fill="#273160" transform="translate(366,641)"/>
<path d="M0 0 C0.71841064 0.00080566 1.43682129 0.00161133 2.17700195 0.00244141 C9.35488691 0.08508553 15.76028025 1.20020721 22.375 4.1875 C21.59181311 8.10343446 19.98320142 11.55156635 18.375 15.1875 C15.57645384 14.67867343 13.00655424 14.05967188 10.3125 13.125 C5.20817408 11.63764675 -0.37822775 11.47412307 -5.625 12.1875 C-7.52169665 13.41122738 -7.52169665 13.41122738 -8.625 15.1875 C-9.19018934 18.22466354 -9.19018934 18.22466354 -7.625 21.1875 C-3.31093982 23.76094516 1.5032639 25.03907109 6.375 26.125 C12.69427322 27.6020659 18.44646579 30.21304831 23 34.875 C25.19192787 40.15555351 25.48330845 44.98510121 23.59765625 50.43359375 C21.05248977 55.22502815 17.57843438 58.16424184 12.63671875 60.3359375 C0.72931321 63.44469727 -11.82654902 62.05815704 -22.625 56.1875 C-23.285 55.5275 -23.945 54.8675 -24.625 54.1875 C-24.28061395 50.05486741 -22.56070031 46.80641796 -20.625 43.1875 C-19.59439453 43.71150391 -19.59439453 43.71150391 -18.54296875 44.24609375 C-17.64191406 44.70113281 -16.74085938 45.15617188 -15.8125 45.625 C-14.91917969 46.07746094 -14.02585937 46.52992188 -13.10546875 46.99609375 C-8.76987724 49.07854322 -5.40622607 49.35009778 -0.625 49.375 C1.23125 49.39626953 1.23125 49.39626953 3.125 49.41796875 C6.52259425 49.44621019 6.52259425 49.44621019 9.375 47.1875 C9.6252157 44.10384129 9.6252157 44.10384129 9.375 41.1875 C5.37318755 38.99092156 1.59181886 37.61663055 -2.79296875 36.50146484 C-10.29301645 34.58497035 -16.73859367 32.63144835 -21.625 26.1875 C-23.5401256 20.44212321 -23.58865787 14.3557302 -21.125 8.8125 C-14.98311737 2.36352323 -8.81363516 -0.01011086 0 0 Z " fill="#283362" transform="translate(430.625,636.8125)"/>
<path d="M0 0 C5.06073298 4.03018372 7.39244927 7.21711178 8.8984375 13.5234375 C8.8984375 16.8234375 8.8984375 20.1234375 8.8984375 23.5234375 C-2.3215625 23.5234375 -13.5415625 23.5234375 -25.1015625 23.5234375 C-22.04329398 28.85527581 -22.04329398 28.85527581 -17.1015625 31.5234375 C-11.19259546 32.08619627 -8.38883376 31.28723839 -3.1015625 28.5234375 C0.74945791 28.64013509 3.06965471 31.08754121 5.8984375 33.5234375 C4.52565659 36.89878025 3.3207438 38.186711 0.0234375 39.7109375 C-0.99363281 40.19626953 -0.99363281 40.19626953 -2.03125 40.69140625 C-8.64245547 43.34836241 -16.70850045 43.8105767 -23.5546875 41.8046875 C-29.7779683 38.85931796 -34.4672694 34.29069145 -37.3671875 28.02734375 C-39.14523344 21.96496372 -39.358702 15.03897805 -37.21875 9.0546875 C-33.84840307 3.25144114 -28.97543277 -1.28363522 -22.7890625 -3.8515625 C-14.18558442 -5.30977912 -7.38295888 -5.18728337 0 0 Z " fill="#2A3463" transform="translate(629.1015625,655.4765625)"/>
<path d="M0 0 C3.32205731 2.96462077 5.58803433 5.76410298 7 10 C7.08481773 12.58630224 7.11598229 15.14478056 7.09765625 17.73046875 C7.0962413 18.48088943 7.09482635 19.23131012 7.09336853 20.00447083 C7.0877756 22.3988546 7.07522444 24.79314453 7.0625 27.1875 C7.05748408 28.81184761 7.05292134 30.43619668 7.04882812 32.06054688 C7.03780848 36.04040069 7.02054873 40.02018444 7 44 C2.71 44 -1.58 44 -6 44 C-6 42.68 -6 41.36 -6 40 C-6.52207031 40.28875 -7.04414062 40.5775 -7.58203125 40.875 C-13.74618715 43.98406637 -19.12790833 45.02769951 -26 44 C-29.71774054 42.73596822 -32.27857595 40.79123928 -34.9375 37.875 C-36.5401363 33.53845472 -36.78037812 29.5582834 -36 25 C-34.37961148 21.73921816 -32.16147776 19.65668166 -28.96875 17.8515625 C-24.54707622 16.58324029 -20.2605905 16.79097148 -15.6875 16.875 C-14.75615234 16.88402344 -13.82480469 16.89304687 -12.86523438 16.90234375 C-10.5765564 16.92581737 -8.28841328 16.95865271 -6 17 C-7.26946514 12.17557816 -7.26946514 12.17557816 -11 9 C-14.06612399 8.68144624 -14.06612399 8.68144624 -17.4375 8.75 C-18.57058594 8.74484375 -19.70367188 8.7396875 -20.87109375 8.734375 C-23.89211672 8.99084137 -25.40732905 9.56405916 -28 11 C-28.99 11 -29.98 11 -31 11 C-31.99 8.03 -32.98 5.06 -34 2 C-23.23860415 -2.90593046 -11.13497012 -6.31568463 0 0 Z " fill="#2B3563" transform="translate(548,654)"/>
<path d="M0 0 C2.87358012 1.84219141 4.8200725 3.45671125 6.8828125 6.20703125 C7.0703125 8.33203125 7.0703125 8.33203125 5.8828125 10.20703125 C1.11203886 13.28152982 1.11203886 13.28152982 -2.1796875 13.08203125 C-4.1171875 12.20703125 -4.1171875 12.20703125 -6.3671875 10.64453125 C-9.97542773 8.75840567 -13.1743518 8.35993764 -17.1171875 9.20703125 C-20.13503741 10.96310771 -22.53186967 13.0363956 -24.1171875 16.20703125 C-24.49182862 21.82664805 -24.25328121 25.32866325 -21.1171875 30.20703125 C-16.89651101 33.02081558 -13.07894058 32.89992454 -8.1171875 32.20703125 C-5.3470878 30.24193216 -5.3470878 30.24193216 -3.1171875 28.20703125 C1.00774743 28.31279881 4.29147917 30.28608552 7.8828125 32.20703125 C6.54602146 35.23446979 5.13910709 37.17571473 2.6328125 39.33203125 C2.07078125 39.82960938 1.50875 40.3271875 0.9296875 40.83984375 C-5.41264181 45.07613241 -12.78211711 45.0258699 -20.1171875 44.20703125 C-27.58179775 42.01155765 -32.30373352 37.91391011 -36.1171875 31.20703125 C-38.81046404 25.57563485 -39.17309953 19.09051978 -37.53515625 13.06640625 C-34.7162985 6.52768598 -29.04216507 1.17912439 -22.72265625 -1.99609375 C-15.21363445 -4.29270611 -6.93837176 -3.62280297 0 0 Z " fill="#283362" transform="translate(499.1171875,653.79296875)"/>
<path d="M0 0 C4.29 0 8.58 0 13 0 C13 21.12 13 42.24 13 64 C8.71 64 4.42 64 0 64 C0 42.88 0 21.76 0 0 Z " fill="#2E3863" transform="translate(568,634)"/>
<path d="M0 0 C3.76801719 1.63826835 5.82992737 3.54485643 8 7 C8.79114046 11.36445818 9.04175261 16.009095 6.9453125 20.015625 C4.56375658 22.91858665 2.5644407 24.83109578 -1.20703125 25.23828125 C-8.22118281 25.43808467 -8.22118281 25.43808467 -12 23.3125 C-15.59198007 19.15927304 -16.46005971 15.52377586 -16.32421875 9.99609375 C-15.78380244 6.66895238 -14.11883057 4.54259669 -12 2 C-7.9556813 -0.69621247 -4.74665346 -0.54319098 0 0 Z " fill="#F9F9FA" transform="translate(673,662)"/>
<path d="M0 0 C2.72182248 1.3807166 3.89997868 2.63747602 6 5 C6.33 6.65 6.66 8.3 7 10 C-0.26 10 -7.52 10 -15 10 C-14 4 -14 4 -12 1.625 C-7.90011846 -0.59576917 -4.56531034 -0.93071353 0 0 Z " fill="#F3F5F9" transform="translate(619,661)"/>
<path d="M0 0 C0.70189453 0.01353516 1.40378906 0.02707031 2.12695312 0.04101562 C3.85579829 0.07629818 5.58424765 0.13010417 7.3125 0.1875 C7.546875 5.8984375 7.546875 5.8984375 5.4375 8.5 C2.41999008 10.89625788 0.67076919 11.36270652 -3.125 11.4375 C-3.90746094 11.46328125 -4.68992187 11.4890625 -5.49609375 11.515625 C-8.20864994 11.10946685 -9.05370852 10.35214487 -10.6875 8.1875 C-11.09895137 5.44449085 -11.14458786 3.90822654 -9.64453125 1.54296875 C-6.63283967 -0.54297332 -3.52055489 -0.12819948 0 0 Z " fill="#F4F5F8" transform="translate(534.6875,677.8125)"/>
<path d="M0 0 C0.33 0.99 0.66 1.98 1 3 C-0.14324839 4.0029542 -1.28967191 5.00229027 -2.4375 6 C-3.39462891 6.8353125 -3.39462891 6.8353125 -4.37109375 7.6875 C-6 9 -6 9 -7 9 C-7.37254569 5.64708882 -7.31050198 4.3961577 -5.1875 1.6875 C-3 0 -3 0 0 0 Z " fill="#1F2B5D" transform="translate(602,656)"/>
<path d="M0 0 C0.99 0.33 1.98 0.66 3 1 C2.52949219 1.44730469 2.05898438 1.89460937 1.57421875 2.35546875 C-1.85076649 5.68117905 -4.78871658 8.70750866 -7 13 C-7.33 12.34 -7.66 11.68 -8 11 C-7.109375 8.90625 -7.109375 8.90625 -5.75 6.5 C-5.31171875 5.7059375 -4.8734375 4.911875 -4.421875 4.09375 C-3 2 -3 2 0 0 Z " fill="#323F6A" transform="translate(653,655)"/>
<path d="M0 0 C0.66 0.33 1.32 0.66 2 1 C1.52039103 3.23817521 1.00361555 4.99357235 -0.125 7 C-1.19223228 9.43938807 -0.87822019 10.54098346 0 13 C-1.32 12.34 -2.64 11.68 -4 11 C-3.39301257 6.87248551 -1.96189209 3.6678852 0 0 Z " fill="#3B496F" transform="translate(410,680)"/>
<path d="M0 0 C0.99 0.33 1.98 0.66 3 1 C2.67 3.97 2.34 6.94 2 10 C0.00902154 7.01353231 -0.94124926 4.40312738 -2 1 C-1.34 0.67 -0.68 0.34 0 0 Z " fill="#363E69" transform="translate(516,655)"/>
<path d="M0 0 C1 3 1 3 0 6 C2.31 6.66 4.62 7.32 7 8 C7 8.33 7 8.66 7 9 C-0.75 9.125 -0.75 9.125 -3 8 C-1.125 2.25 -1.125 2.25 0 0 Z " fill="#454F76" transform="translate(448,453)"/>
<path d="M0 0 C0.99 0 1.98 0 3 0 C3 0.99 3 1.98 3 3 C3.99 3.33 4.98 3.66 6 4 C6 4.99 6 5.98 6 7 C1.2 4.53846154 1.2 4.53846154 0.1875 1.8125 C0.125625 1.214375 0.06375 0.61625 0 0 Z " fill="#313F6C" transform="translate(466,687)"/>
<path d="M0 0 C-1.29299694 2.88437779 -2.65941363 4.87219421 -5 7 C-5.99 6.67 -6.98 6.34 -8 6 C-7.0479279 4.99403703 -6.08812654 3.99538437 -5.125 3 C-4.59132813 2.443125 -4.05765625 1.88625 -3.5078125 1.3125 C-2 0 -2 0 0 0 Z " fill="#2F4370" transform="translate(405,494)"/>
<path d="M0 0 C3.16115776 1.36983503 3.9927092 1.9890638 6 5 C4.68 5 3.36 5 2 5 C1.34 4.34 0.68 3.68 0 3 C0 2.01 0 1.02 0 0 Z " fill="#1F2C5C" transform="translate(410,661)"/>
<path d="M0 0 C0.66 0 1.32 0 2 0 C3.42944945 2.35438733 4.08661261 3.48032433 3.625 6.25 C3.41875 6.8275 3.2125 7.405 3 8 C0.9375 5.6875 0.9375 5.6875 -1 3 C-0.67 2.01 -0.34 1.02 0 0 Z " fill="#303D62" transform="translate(633,661)"/>
<path d="M0 0 C0.66 0.66 1.32 1.32 2 2 C-0.97 4.475 -0.97 4.475 -4 7 C-4.33 5.68 -4.66 4.36 -5 3 C-3.68 3 -2.36 3 -1 3 C-0.67 2.01 -0.34 1.02 0 0 Z " fill="#3E4970" transform="translate(525,346)"/>
<path d="M0 0 C1.32 0.33 2.64 0.66 4 1 C4.33 2.32 4.66 3.64 5 5 C4.01 5 3.02 5 2 5 C1.34 3.35 0.68 1.7 0 0 Z " fill="#2D3A66" transform="translate(594,686)"/>
<path d="M0 0 C0.33 0 0.66 0 1 0 C1.25532751 3.06393013 1.21861333 4.63233212 -0.375 7.3125 C-1.179375 8.1478125 -1.179375 8.1478125 -2 9 C-2.66 9 -3.32 9 -4 9 C-2.80100302 5.9168649 -1.52299523 2.93720508 0 0 Z " fill="#34456E" transform="translate(402,368)"/>
</svg>
