<?xml version="1.0" encoding="UTF-8"?>
<svg version="1.1" xmlns="http://www.w3.org/2000/svg" width="512" height="472">
<path d="M0 0 C1.63557418 1.25719508 3.26222568 2.52618692 4.875 3.8125 C5.45507812 4.25207031 6.03515625 4.69164063 6.6328125 5.14453125 C10.9509906 8.52446646 14.38416265 12.61905767 17.875 16.8125 C18.5040625 17.55371094 19.133125 18.29492188 19.78125 19.05859375 C52.49084804 58.58269138 66.34075583 111.98740285 80.19732666 160.44689941 C81.17184672 163.84872311 82.15336276 167.24852035 83.13414001 170.64854431 C92.22928296 202.19427272 92.22928296 202.19427272 96.3125 217.75 C99.40654198 229.47303576 102.88060498 241.07901604 106.375 252.6875 C106.64472626 253.58830292 106.91445251 254.48910583 107.19235229 255.41720581 C111.07037658 268.34675878 115.30228791 281.1123457 119.875 293.8125 C120.10973022 294.46812927 120.34446045 295.12375854 120.58630371 295.79925537 C129.07676437 319.48387159 138.96095033 342.35167327 151.1875 364.375 C151.73768799 365.36725586 152.28787598 366.35951172 152.85473633 367.38183594 C156.74386547 374.21963526 161.14541293 380.53251653 165.875 386.8125 C166.72409951 387.96604193 167.57308311 389.1196692 168.421875 390.2734375 C175.20752274 399.24878007 182.71888795 407.38378384 190.4609375 415.53515625 C198.34296249 424.00636915 202.68320126 430.24457389 202.61230469 442.12792969 C202.43777641 445.20344054 202.09019106 447.46064164 200.47265625 450.10546875 C198.65222435 451.71876179 197.07568702 452.78239118 194.875 453.8125 C194.11703125 454.17859375 193.3590625 454.5446875 192.578125 454.921875 C181.63214947 458.52835249 169.89062566 455.26865829 159.95703125 450.375 C152.20165282 446.11312757 145.38497974 440.76218085 138.5546875 435.18359375 C136.94987236 433.87361674 135.33597949 432.57585038 133.71875 431.28125 C129.19970509 427.63685895 124.94696918 423.9564815 120.875 419.8125 C120.20855469 419.16925781 119.54210937 418.52601563 118.85546875 417.86328125 C118.26378906 417.28964844 117.67210937 416.71601563 117.0625 416.125 C116.45792969 415.54363281 115.85335938 414.96226562 115.23046875 414.36328125 C113.875 412.8125 113.875 412.8125 113.875 410.8125 C113.215 410.8125 112.555 410.8125 111.875 410.8125 C109.29269715 408.39255751 107.12515151 405.53781439 104.875 402.8125 C104.44364746 402.29204102 104.01229492 401.77158203 103.56787109 401.23535156 C87.73014062 382.04446364 74.09073986 361.36998924 61.92626953 339.67919922 C45.19645365 309.91432948 45.19645365 309.91432948 25.875 281.8125 C25.23691406 280.95140625 24.59882813 280.0903125 23.94140625 279.203125 C8.66631817 259.25976676 -11.2316076 244.03689073 -36.52783203 240.11425781 C-61.82587574 237.1749476 -87.30882068 240.6954171 -107.8203125 256.59375 C-111.04410444 259.20950859 -114.09355783 261.97677504 -117.125 264.8125 C-117.78628906 265.40546875 -118.44757813 265.9984375 -119.12890625 266.609375 C-133.84795195 280.40634591 -144.14155085 299.52316825 -154.125 316.8125 C-186.68136992 373.01051601 -186.68136992 373.01051601 -205.125 395.8125 C-205.55538574 396.34584961 -205.98577148 396.87919922 -206.42919922 397.42871094 C-218.98839984 412.86729366 -233.02789385 427.08118009 -249.125 438.8125 C-250.33365917 439.71570997 -251.54198691 440.6193636 -252.75 441.5234375 C-259.19595591 446.29309924 -265.6682652 450.74808844 -273.125 453.8125 C-274.42630859 454.35777344 -274.42630859 454.35777344 -275.75390625 454.9140625 C-280.38658343 456.14872733 -284.787983 456.18080832 -289.5625 456.1875 C-290.47837891 456.21199219 -291.39425781 456.23648437 -292.33789062 456.26171875 C-298.49316707 456.28823107 -302.09115393 455.39861725 -307.125 451.8125 C-310.44835141 448.16753394 -310.77229285 444.37610208 -310.58203125 439.60546875 C-308.39790144 426.25800878 -296.8971423 415.36173057 -287.5625 406.3125 C-241.88364085 361.62307462 -221.49590178 288.57326625 -205.0390625 228.72265625 C-203.62743502 223.59625935 -202.1794546 218.48139709 -200.7109375 213.37109375 C-200.50049805 212.63874512 -200.29005859 211.90639648 -200.07324219 211.15185547 C-199.64162527 209.65035177 -199.20994338 208.14886674 -198.77819824 206.6473999 C-195.59102414 195.55959584 -192.46005583 184.4636189 -189.5 173.3125 C-178.65125028 132.63832859 -167.08698769 90.08041049 -147.125 52.8125 C-146.50597065 51.58230615 -145.89012289 50.35050658 -145.27734375 49.1171875 C-131.52840113 21.80822992 -110.43445762 -2.68363743 -81.01171875 -12.99609375 C-79.71992519 -13.40535543 -78.42419674 -13.80238501 -77.125 -14.1875 C-76.1498645 -14.47898926 -76.1498645 -14.47898926 -75.1550293 -14.77636719 C-49.34784795 -21.50789281 -21.33941587 -15.27544113 0 0 Z " fill="#6188C2" transform="translate(310.125,16.1875)"/>
</svg>
