<?xml version="1.0" encoding="UTF-8"?>
<svg version="1.1" xmlns="http://www.w3.org/2000/svg" width="148" height="148">
<path d="M0 0 C48.84 0 97.68 0 148 0 C148 48.84 148 97.68 148 148 C99.16 148 50.32 148 0 148 C0 99.16 0 50.32 0 0 Z " fill="#F8D401" transform="translate(0,0)"/>
<path d="M0 0 C4.42111499 3.56452396 7.74755094 7.68015283 9.5625 13.125 C9.75 16.6875 9.75 16.6875 9.5625 20.125 C8.9025 20.785 8.2425 21.445 7.5625 22.125 C4.02678571 21.58928571 4.02678571 21.58928571 2.5625 20.125 C2.26786617 18.71309135 2.00159346 17.2952098 1.75 15.875 C0.6027391 10.69593653 -0.98990036 7.71165759 -5.55859375 4.75 C-13.81806365 -0.02394648 -20.88198827 -0.65351825 -30.4375 0.125 C-34.33027103 1.24301311 -37.57354055 2.58782539 -39.640625 6.265625 C-39.90359375 6.87921875 -40.1665625 7.4928125 -40.4375 8.125 C-39.67566406 8.19976562 -38.91382813 8.27453125 -38.12890625 8.3515625 C-30.54256758 9.31761312 -25.32453635 11.21288686 -19.4375 16.125 C-18.87160156 16.58261719 -18.30570312 17.04023437 -17.72265625 17.51171875 C-15.48707483 20.31808692 -15.91704792 23.22168474 -16.0078125 26.67578125 C-16.6557101 30.36879756 -18.49382211 31.95228537 -21.4375 34.125 C-24.58767107 35.70008554 -27.08587991 36.08698236 -30.4375 35.125 C-36.73342283 30.58922764 -43.49660356 24.47724109 -46.4375 17.125 C-46.4375 16.135 -46.4375 15.145 -46.4375 14.125 C-47.86011484 14.49889236 -49.27551142 14.90029043 -50.6875 15.3125 C-51.47640625 15.53292969 -52.2653125 15.75335938 -53.078125 15.98046875 C-56.26645018 17.52712319 -57.58120327 19.10851782 -59.4375 22.125 C-60.13056366 25.69410296 -60.13056366 25.69410296 -60.1875 29.4375 C-60.24421875 30.69175781 -60.3009375 31.94601563 -60.359375 33.23828125 C-60.38515625 34.19089844 -60.4109375 35.14351562 -60.4375 36.125 C-58.9525 35.63 -58.9525 35.63 -57.4375 35.125 C-38.75970761 33.7067599 -17.59855064 35.19378983 -2.09765625 46.890625 C0.63121474 49.74149258 1.47913549 51.7359656 2.3125 55.625 C1.28823961 60.4048818 -0.78166578 62.95988178 -4.4375 66.125 C-11.57922474 70.73736389 -20.45312471 69.92175888 -28.58984375 68.62109375 C-41.40854868 65.67329695 -54.91097772 60.56531387 -62.4375 49.125 C-63.12477848 47.46672665 -63.79441888 45.80090838 -64.4375 44.125 C-66.05015753 45.00545655 -67.65234475 45.90510496 -69.25 46.8125 C-70.14332031 47.31136719 -71.03664063 47.81023437 -71.95703125 48.32421875 C-74.78891914 50.38012476 -76.00125775 51.9437468 -77.4375 55.125 C-78.39476399 61.92908229 -78.12551206 69.1825605 -74.4375 75.125 C-70.26023985 80.42102539 -65.78232557 85.00778454 -60.4375 89.125 C-60.7675 90.775 -61.0975 92.425 -61.4375 94.125 C-64.26605403 94.35010984 -65.95448291 94.41102188 -68.4296875 92.9453125 C-76.77895934 85.42750342 -83.73285075 76.77321547 -84.78515625 65.3515625 C-85.11760891 58.66809061 -85.36840971 52.25757655 -81.06640625 46.7421875 C-73.39402174 39.125 -73.39402174 39.125 -67.4375 39.125 C-67.47230469 38.05121094 -67.50710937 36.97742188 -67.54296875 35.87109375 C-67.57112918 34.43491161 -67.59842691 32.99871238 -67.625 31.5625 C-67.65013672 30.85802734 -67.67527344 30.15355469 -67.70117188 29.42773438 C-67.79040594 22.97313719 -66.36692589 18.41945241 -62.125 13.375 C-58.36601419 10.22794211 -55.1928156 8.26267181 -50.25 7.875 C-49.321875 7.6275 -48.39375 7.38 -47.4375 7.125 C-46.74497762 5.44315993 -46.06147684 3.75589848 -45.4609375 2.0390625 C-43.0767163 -2.41997715 -37.98854765 -4.8233847 -33.45703125 -6.69140625 C-21.30442887 -10.27454469 -10.19133567 -7.12627231 0 0 Z " fill="#0D0B01" transform="translate(121.4375,38.875)"/>
<path d="M0 0 C38.4314768 -0.63498881 38.4314768 -0.63498881 50.87890625 9.53515625 C52 11 52 11 52.375 13.5 C51.93484841 16.43434394 51.35477824 17.25571982 49 19 C37.62777048 22.79074317 24.54549989 19.84752817 14 15 C8.55354717 11.90285908 3.32458708 8.44023341 0 3 C0 2.01 0 1.02 0 0 Z " fill="#F4D101" transform="translate(64,81)"/>
<path d="M0 0 C0.33 0 0.66 0 1 0 C1.33 1.65 1.66 3.3 2 5 C3.32 4.67 4.64 4.34 6 4 C6.33 5.32 6.66 6.64 7 8 C7.99 7.67 8.98 7.34 10 7 C8.59023295 10.03852705 6.91129772 12.5939595 4.875 15.25 C4.33617187 15.95640625 3.79734375 16.6628125 3.2421875 17.390625 C2.83226562 17.92171875 2.42234375 18.4528125 2 19 C1.67 17.68 1.34 16.36 1 15 C-0.65 15.33 -2.3 15.66 -4 16 C-4 14.68 -4 13.36 -4 12 C-5.32 11.34 -6.64 10.68 -8 10 C-6.69118353 8.33043913 -5.37785174 6.66441696 -4.0625 5 C-2.96615234 3.6078125 -2.96615234 3.6078125 -1.84765625 2.1875 C-1.23792969 1.465625 -0.62820312 0.74375 0 0 Z " fill="#171303" transform="translate(19,74)"/>
<path d="M0 0 C6.44897774 0.53741481 12.32541176 2.32541176 17 7 C16.625 10.125 16.625 10.125 16 13 C13.5 13.5 13.5 13.5 10 13 C5.27233959 9.40172513 1.93948452 5.65023296 0 0 Z " fill="#F3D002" transform="translate(82,54)"/>
<path d="M0 0 C0.66 0 1.32 0 2 0 C2.99 3.96 3.98 7.92 5 12 C3.02 12 1.04 12 -1 12 C-1 12.99 -1 13.98 -1 15 C-4.21043882 13.61811547 -6.04936365 12.07578097 -8.25 9.375 C-8.77078125 8.74335937 -9.2915625 8.11171875 -9.828125 7.4609375 C-10.21484375 6.97882813 -10.6015625 6.49671875 -11 6 C-10.45730469 5.81824219 -9.91460937 5.63648437 -9.35546875 5.44921875 C-8.28232422 5.07216797 -8.28232422 5.07216797 -7.1875 4.6875 C-6.47980469 4.44386719 -5.77210937 4.20023437 -5.04296875 3.94921875 C-2.85109073 2.93081271 -1.67201868 1.71034576 0 0 Z " fill="#0F0D02" transform="translate(110,115)"/>
<path d="M0 0 C0.98120464 3.05263664 0.98120464 4.94736336 0 8 C-3.05263664 8.98120464 -4.94736336 8.98120464 -8 8 C-8.97110486 4.97878489 -9.13617383 2.99536737 -8 0 C-5.13822943 -1.43088528 -3.06624227 -0.59991697 0 0 Z " fill="#161303" transform="translate(89,13)"/>
<path d="M0 0 C4.29 0.66 8.58 1.32 13 2 C12.67 2.99 12.34 3.98 12 5 C7.71 4.34 3.42 3.68 -1 3 C-0.67 2.01 -0.34 1.02 0 0 Z " fill="#EACA03" transform="translate(87,72)"/>
</svg>
